#!OML:ASF F:\VICON\USERDATA\INSTALL\rory3\rory3.ASF
:FULLY-SPECIFIED
:DEGREES
1872
root -0.918256 19.1541 2.40569 -517.973 -99.2106 518.693
lowerback 5.98355 1.16532 -2.24418
upperback -4.96221 0.551294 -7.16655
thorax -8.60653 0.0463826 -6.47222
lowerneck -14.9679 -9.98678 -15.2207
upperneck -14.3961 -11.0091 14.7489
head -0.217576 -5.19071 6.43546
rclavicle 1.70955e-014 -6.36111e-015
rhumerus 82.9765 -40.8368 -41.5478
rradius 25.4692
rwrist 8.56627
rhand -33.2537 -9.14907
rfingers 7.12502
rthumb -6.4591 -39.0306
lclavicle 1.70955e-014 -6.36111e-015
lhumerus 28.5363 12.8603 9.29466
lradius 97.872
lwrist 15.0224
lhand -22.8056 18.6984
lfingers 7.12502
lthumb 3.63085 48.6472
rfemur 2.15632 1.48422 23.2646
rtibia 16.8418
rfoot 2.94209 -15.7159
rtoes 5.21545
lfemur -17.9945 -8.32315 7.65506
ltibia 31.9876
lfoot -0.6442 -9.81503
ltoes -24.6951
1873
root -0.933378 19.2135 2.33574 -519.18 -99.5501 519.965
lowerback 5.89116 1.37448 -2.4421
upperback -5.03855 0.797629 -7.28389
thorax -8.61557 0.171107 -6.52042
lowerneck -14.7484 -10.2596 -15.4874
upperneck -14.2775 -11.3501 14.8395
head -0.146009 -5.34772 6.47414
rclavicle -2.34566e-014 3.18055e-014
rhumerus 81.995 -41.1313 -40.3174
rradius 25.5006
rwrist 8.53984
rhand -33.2925 -9.75784
rfingers 7.12502
rthumb -6.49663 -39.6382
lclavicle -2.34566e-014 3.18055e-014
lhumerus 28.5133 13.1473 9.0589
lradius 97.4805
lwrist 15.3484
lhand -22.597 18.4409
lfingers 7.12502
lthumb 3.83228 48.3862
rfemur 2.64241 1.55999 23.5296
rtibia 15.5451
rfoot 3.67441 -17.0419
rtoes 5.19634
lfemur -18.351 -8.55079 7.80309
ltibia 32.4852
lfoot -0.66266 -10.0168
ltoes -24.7803
1874
root -0.948554 19.2634 2.26867 -520.662 -99.9106 521.548
lowerback 5.74859 1.48498 -2.67379
upperback -5.16679 0.910755 -7.35617
thorax -8.66597 0.233222 -6.48298
lowerneck -14.4262 -10.3912 -15.6868
upperneck -14.1509 -11.5339 14.7635
head -0.125926 -5.43131 6.47055
rclavicle 7.95139e-016 -2.8625e-014
rhumerus 81.5527 -41.0866 -39.7103
rradius 25.4805
rwrist 8.64239
rhand -33.2937 -9.92317
rfingers 7.12502
rthumb -6.49772 -39.8035
lclavicle 7.95139e-016 -2.8625e-014
lhumerus 28.1538 13.3926 8.61136
lradius 97.2598
lwrist 15.8829
lhand -22.2496 18.4257
lfingers 7.12502
lthumb 4.16771 48.3647
rfemur 3.03425 1.7002 23.6978
rtibia 14.4012
rfoot 4.08549 -18.3829
rtoes 6.90749
lfemur -18.7315 -8.90454 7.87522
ltibia 32.8885
lfoot -0.53428 -9.977
ltoes -24.062
1875
root -0.964523 19.3106 2.19986 -521.629 -100.266 522.614
lowerback 5.57059 1.5569 -2.88498
upperback -5.2841 0.988226 -7.34753
thorax -8.68698 0.282259 -6.36116
lowerneck -14.1951 -10.5089 -15.9421
upperneck -13.9384 -11.6867 14.5946
head -0.0779631 -5.4933 6.44348
rclavicle 6.0033e-014 -1.59028e-014
rhumerus 81.2045 -40.987 -39.1776
rradius 25.5076
rwrist 8.53351
rhand -33.2883 -9.73631
rfingers 7.12502
rthumb -6.49252 -39.6168
lclavicle 6.0033e-014 -1.59028e-014
lhumerus 27.7772 13.7763 8.29158
lradius 96.9316
lwrist 16.6574
lhand -21.7983 17.9211
lfingers 7.12502
lthumb 4.60353 47.8511
rfemur 3.36058 1.964 23.944
rtibia 13.3963
rfoot 4.35957 -19.7233
rtoes 9.0946
lfemur -19.0687 -9.17952 7.99855
ltibia 33.2214
lfoot -0.302667 -10.063
ltoes -23.2361
1876
root -0.981406 19.3546 2.13256 -522.449 -100.615 523.45
lowerback 5.4936 1.65155 -3.0259
upperback -5.38143 1.09806 -7.34735
thorax -8.74205 0.342708 -6.2968
lowerneck -14.0278 -10.6409 -16.1469
upperneck -13.6642 -11.8616 14.3256
head -0.0116875 -5.56583 6.3706
rclavicle -4.09496e-014 0
rhumerus 80.9169 -40.9635 -38.8128
rradius 25.5363
rwrist 8.5598
rhand -32.8908 -10.0118
rfingers 7.12502
rthumb -6.10875 -39.9038
lclavicle -4.09496e-014 0
lhumerus 27.4392 14.1809 8.03132
lradius 96.4567
lwrist 17.4371
lhand -21.2015 16.6527
lfingers 7.12502
lthumb 5.17977 46.5694
rfemur 3.71988 2.18597 24.2091
rtibia 12.5213
rfoot 4.6008 -20.9416
rtoes 10.1561
lfemur -19.2794 -9.29823 8.09772
ltibia 33.4859
lfoot 0.0608799 -10.4376
ltoes -22.6183
1877
root -0.993583 19.3934 2.06389 -523.874 -100.887 524.836
lowerback 5.55613 1.74708 -3.28434
upperback -5.45437 1.18074 -7.40298
thorax -8.85899 0.393036 -6.22945
lowerneck -13.7116 -10.685 -16.3758
upperneck -13.6489 -11.9298 14.2311
head -0.0402112 -5.5928 6.38247
rclavicle 6.36111e-015 1.59028e-014
rhumerus 80.704 -40.9047 -38.5247
rradius 25.5262
rwrist 8.50156
rhand -32.3956 -10.4422
rfingers 7.12502
rthumb -5.6307 -40.3474
lclavicle 6.36111e-015 1.59028e-014
lhumerus 27.1148 14.4915 7.51986
lradius 95.9856
lwrist 17.9308
lhand -21.1721 16.2865
lfingers 7.12502
lthumb 5.20821 46.2025
rfemur 4.10946 2.51799 24.3564
rtibia 11.721
rfoot 4.77039 -22.1911
rtoes 11.2448
lfemur -19.41 -9.47118 8.0624
ltibia 33.7077
lfoot 0.643479 -10.5648
ltoes -22.351
1878
root -1.00687 19.4241 2.00196 -524.937 -101.205 525.922
lowerback 5.46714 1.82982 -3.43025
upperback -5.49344 1.27565 -7.44475
thorax -8.84534 0.445958 -6.20241
lowerneck -13.4224 -10.7101 -16.576
upperneck -13.6083 -11.9775 14.063
head -0.0687397 -5.60939 6.36759
rclavicle 1.59028e-015 3.18055e-015
rhumerus 80.4045 -40.8032 -37.9982
rradius 25.5241
rwrist 7.9322
rhand -32.1876 -11.1335
rfingers 7.12502
rthumb -5.42983 -41.0439
lclavicle 1.59028e-015 3.18055e-015
lhumerus 26.7132 14.7466 7.16841
lradius 95.8163
lwrist 17.9598
lhand -21.6547 16.8315
lfingers 7.12502
lthumb 4.74224 46.7584
rfemur 4.31251 2.53808 24.4824
rtibia 11.1046
rfoot 5.23031 -23.1059
rtoes 11.8462
lfemur -19.5749 -9.69344 8.07424
ltibia 33.8808
lfoot 1.34664 -10.5856
ltoes -22.802
1879
root -1.02 19.4513 1.94459 -525.538 -101.523 526.439
lowerback 5.45659 1.88108 -3.45006
upperback -5.52057 1.34442 -7.42729
thorax -8.86401 0.481918 -6.18206
lowerneck -13.1898 -10.7353 -16.7627
upperneck -13.4875 -12.0204 13.9339
head -0.0628359 -5.62331 6.35744
rclavicle 1.94809e-014 6.04305e-014
rhumerus 80.4068 -40.5435 -37.8114
rradius 25.3758
rwrist 7.72156
rhand -31.9669 -11.5916
rfingers 7.12502
rthumb -5.21673 -41.5074
lclavicle 1.94809e-014 6.04305e-014
lhumerus 26.1969 14.9775 6.84246
lradius 95.6628
lwrist 17.8734
lhand -22.1243 17.4411
lfingers 7.12502
lthumb 4.28876 47.3777
rfemur 4.51591 2.36054 24.6512
rtibia 10.7171
rfoot 5.7454 -23.7296
rtoes 12.3582
lfemur -19.6245 -9.75731 8.11536
ltibia 34.0392
lfoot 2.15682 -10.4871
ltoes -22.18
1880
root -1.02628 19.4776 1.88751 -527.269 -101.774 528.134
lowerback 5.50874 1.95229 -3.66392
upperback -5.53488 1.40031 -7.5236
thorax -8.91236 0.51592 -6.17778
lowerneck -13.0576 -10.8165 -17.0966
upperneck -13.3078 -12.0973 14.0468
head 0.00999688 -5.64852 6.43329
rclavicle -2.34566e-014 9.54166e-015
rhumerus 79.3435 -40.6437 -36.3599
rradius 25.5187
rwrist 6.55667
rhand -31.3103 -12.0574
rfingers 7.12502
rthumb -4.58275 -41.9878
lclavicle -2.34566e-014 9.54166e-015
lhumerus 25.8047 15.2142 6.40008
lradius 95.3784
lwrist 17.6185
lhand -22.2071 17.9188
lfingers 7.12502
lthumb 4.20881 47.857
rfemur 4.62329 2.13826 24.5227
rtibia 10.4204
rfoot 6.35061 -24.162
rtoes 13.0597
lfemur -19.7183 -10.0004 7.84257
ltibia 34.1959
lfoot 2.90852 -10.1549
ltoes -21.5219
1881
root -1.02989 19.4975 1.82882 -528.76 -102.096 529.622
lowerback 5.57955 2.03802 -3.86764
upperback -5.53337 1.47266 -7.65272
thorax -8.95282 0.55584 -6.21795
lowerneck -13.1144 -11.0663 -17.4553
upperneck -12.947 -12.3691 14.1952
head 0.19589 -5.76517 6.48724
rclavicle 1.31198e-014 -7.63333e-014
rhumerus 79.0872 -40.7164 -36.04
rradius 25.4745
rwrist 6.42155
rhand -30.382 -12.2244
rfingers 7.12502
rthumb -3.68631 -42.1722
lclavicle 1.31198e-014 -7.63333e-014
lhumerus 25.6885 15.5035 6.05537
lradius 95.0132
lwrist 17.5927
lhand -22.2168 17.9888
lfingers 7.12502
lthumb 4.19944 47.9272
rfemur 4.62198 1.99626 24.4974
rtibia 10.284
rfoot 7.00641 -24.496
rtoes 13.0933
lfemur -19.8703 -9.93446 7.58244
ltibia 34.3459
lfoot 3.5697 -10.1441
ltoes -21.2763
1882
root -1.04452 19.512 1.77002 -529.919 -102.525 530.703
lowerback 5.53724 2.06365 -4.01815
upperback -5.45152 1.4991 -7.70035
thorax -8.84 0.578135 -6.18027
lowerneck -13.2658 -11.3338 -17.8187
upperneck -12.6048 -12.6513 14.2876
head 0.386558 -5.88458 6.51901
rclavicle -2.90226e-014 5.40694e-014
rhumerus 79.6039 -40.6716 -36.5503
rradius 25.2633
rwrist 7.03312
rhand -29.4175 -12.1642
rfingers 7.12502
rthumb -2.75493 -42.1261
lclavicle -2.90226e-014 5.40694e-014
lhumerus 25.4069 15.8507 5.8086
lradius 94.7516
lwrist 17.4771
lhand -22.2181 18.6007
lfingers 7.12502
lthumb 4.19813 48.5391
rfemur 4.69139 1.72622 24.521
rtibia 10.2967
rfoot 7.27756 -24.7771
rtoes 13.1949
lfemur -19.9292 -9.62573 7.37143
ltibia 34.4964
lfoot 4.20327 -10.3079
ltoes -21.4584
1883
root -1.0565 19.5203 1.71535 -530.858 -102.977 531.466
lowerback 5.61881 2.02728 -4.05667
upperback -5.38285 1.44576 -7.71559
thorax -8.81784 0.55515 -6.1684
lowerneck -12.9419 -11.3109 -18.0422
upperneck -12.798 -12.6354 14.3695
head 0.300391 -5.87524 6.60187
rclavicle 1.23246e-014 -3.18055e-015
rhumerus 79.7 -40.5246 -36.6339
rradius 25.2528
rwrist 7.39733
rhand -28.4815 -12.3964
rfingers 7.12502
rthumb -1.85094 -42.3681
lclavicle 1.23246e-014 -3.18055e-015
lhumerus 24.9227 16.0846 5.2326
lradius 94.3701
lwrist 17.472
lhand -22.5088 18.9456
lfingers 7.12502
lthumb 3.91741 48.8893
rfemur 4.74736 1.40793 24.5779
rtibia 10.5146
rfoot 7.37228 -24.9225
rtoes 12.9234
lfemur -19.8821 -9.52494 7.22156
ltibia 34.6212
lfoot 5.00762 -9.93769
ltoes -20.3263
1884
root -1.06261 19.5214 1.66471 -530.576 -103.388 530.981
lowerback 5.72021 1.98428 -3.82888
upperback -5.3306 1.42021 -7.64712
thorax -8.81517 0.53485 -6.22121
lowerneck -12.7446 -11.2153 -18.1632
upperneck -12.8135 -12.5182 14.454
head 0.265835 -5.81678 6.66834
rclavicle 2.10712e-014 3.18055e-014
rhumerus 79.0693 -40.4518 -35.7467
rradius 25.4572
rwrist 6.90504
rhand -27.623 -12.4609
rfingers 7.12502
rthumb -1.02181 -42.4382
lclavicle 2.10712e-014 3.18055e-014
lhumerus 24.3607 16.3055 4.44886
lradius 93.9431
lwrist 17.5677
lhand -22.8741 18.8004
lfingers 7.12502
lthumb 3.56471 48.7504
rfemur 4.64873 1.15757 24.9366
rtibia 11.0105
rfoot 7.37719 -24.8612
rtoes 12.752
lfemur -19.783 -9.58987 7.40619
ltibia 34.7072
lfoot 5.78029 -9.24414
ltoes -18.9918
1885
root -1.06245 19.5241 1.61266 -531.956 -103.711 532.276
lowerback 5.83841 1.91856 -4.11135
upperback -5.30339 1.29942 -7.6004
thorax -8.87376 0.495144 -5.99867
lowerneck -12.7968 -11.1738 -18.363
upperneck -12.644 -12.4263 14.5244
head 0.327575 -5.76126 6.72123
rclavicle -4.77083e-015 6.36111e-014
rhumerus 78.6571 -40.2999 -34.9478
rradius 25.5958
rwrist 6.17728
rhand -26.9164 -12.0851
rfingers 7.12502
rthumb -0.339361 -42.0646
lclavicle -4.77083e-015 6.36111e-014
lhumerus 23.7522 16.6848 4.02654
lradius 93.6361
lwrist 17.653
lhand -22.7039 18.2271
lfingers 7.12502
lthumb 3.72903 48.1742
rfemur 4.36639 1.05624 24.8514
rtibia 11.7345
rfoot 7.19687 -24.8087
rtoes 12.9372
lfemur -19.732 -9.55812 7.07198
ltibia 34.74
lfoot 6.41102 -8.62814
ltoes -18.4029
1886
root -1.062 19.5264 1.56464 -534.424 -104.007 534.812
lowerback 5.86053 1.86242 -4.66642
upperback -5.31889 1.14939 -7.66602
thorax -8.93123 0.449777 -5.7392
lowerneck -12.7039 -11.1469 -18.4902
upperneck -12.5979 -12.3845 14.6447
head 0.340537 -5.73818 6.7843
rclavicle 1.70955e-014 2.54444e-014
rhumerus 78.1872 -40.1015 -34.2552
rradius 25.8302
rwrist 5.56478
rhand -26.4857 -11.9915
rfingers 7.12502
rthumb 0.076661 -41.9712
lclavicle 1.70955e-014 2.54444e-014
lhumerus 23.2636 17.0843 3.90036
lradius 93.4312
lwrist 17.5734
lhand -22.5856 18.0486
lfingers 7.12502
lthumb 3.84327 47.9937
rfemur 3.99048 0.903799 24.3825
rtibia 12.3806
rfoot 7.14427 -24.7055
rtoes 13.5083
lfemur -19.7803 -9.44696 6.31392
ltibia 34.79
lfoot 6.95567 -8.18564
ltoes -18.902
